<?xml version="1.0" encoding="UTF-8"?><svg id="a" xmlns="http://www.w3.org/2000/svg" xmlns:xlink="http://www.w3.org/1999/xlink" viewBox="0 0 1707.05 1048.54" aria-hidden="true" height="100"><defs><style>.h{fill:url(#e);}.i{fill:url(#d);}.j{fill:url(#g);}.k{fill:url(#f);}.l{fill:url(#c);}.m{fill:url(#b);}.n{fill:none;}.o{fill:#f8f9fb;}.p{fill:#fff;}.q{fill:#a0bde5;}.r{fill:#9ebdf7;}.s{fill:#cff0ef;}.t{fill:#c7d9fa;}.u{fill:#afe6e4;}.v{fill:#94b2d6;}.w{isolation:isolate;}</style><linearGradient id="b" x1="1047.83" y1="-329.66" x2="1060.59" y2="13.22" gradientTransform="translate(0 998.5)" gradientUnits="userSpaceOnUse"><stop offset="0" stop-color="#f8f9fb"/><stop offset="1" stop-color="#a0bde5"/></linearGradient><linearGradient id="c" x1="900.95" y1="-163.26" x2="900.95" y2="-259.08" gradientTransform="translate(0 998.5)" gradientUnits="userSpaceOnUse"><stop offset="0" stop-color="#f8f9fb"/><stop offset="1" stop-color="#a0bde5"/></linearGradient><linearGradient id="d" x1="294.12" y1="-640.92" x2="280.77" y2="-548.96" gradientTransform="translate(0 1175.44)" gradientUnits="userSpaceOnUse"><stop offset="0" stop-color="#3576ee"/><stop offset="1" stop-color="#f77fa4"/></linearGradient><linearGradient id="e" x1="197.88" y1="-542.39" x2="197.88" y2="-234.07" gradientTransform="translate(0 998.5)" gradientUnits="userSpaceOnUse"><stop offset="0" stop-color="#3576ee"/><stop offset="1" stop-color="#f77fa4"/></linearGradient><linearGradient id="f" x1="353.05" y1="-518.33" x2="330.59" y2="-370.76" gradientTransform="translate(0 998.5)" gradientUnits="userSpaceOnUse"><stop offset="0" stop-color="#3576ee"/><stop offset="1" stop-color="#f77fa4"/></linearGradient><linearGradient id="g" x1="277.07" y1="-232.86" x2="277.07" y2="-50.66" gradientTransform="translate(0 998.5)" gradientUnits="userSpaceOnUse"><stop offset="0" stop-color="#6ed1ce"/><stop offset="1" stop-color="#45a1d0"/></linearGradient></defs><g transform="matrix(1, 0, 0, 1, 5.684341886080802e-14, -176.9385986328125)"><path class="t" d="M30.65,378.7c-4.5,20.8-6.4,42.4-5.7,63.9,15.1-31.6,38.4-59.2,62.1-84.9,22.1-24.1,45.8-46.9,66.5-72.2,19.9-26.8,34.5-56.8,49.7-86.3-21.2,4.5-41.8,11.9-61.5,23.3-54.1,31.2-96.8,90.4-111.1,156.2Z"/><path class="t" d="M782.35,91.2c14.6,5.7,29.5,10.2,45,13,5,.5,9.9,.6,14.9,.6s10.2-.2,15.3-.7c.4-.1,.8-.2,1.2-.2-23.2-22.1-46.9-43.9-74-59.4-24-13.8-48.9-21.9-75.9-24.5-4.8-.5-9.5-.7-14.4-.7-15.4,0-30.8,2.2-45.9,5.9,25.1,10.3,49.3,22.4,73.2,35.3,19.8,10.8,39.8,21.5,60.6,30.7Z"/><path class="t" d="M888.85,852.9c-48.4-12.7-97.3-24.4-146.9-31.5-23.9-2.9-47.9-4.5-72-4.5-17.9,0-35.8,.9-53.6,2.9-26.8,4.1-53.1,10.8-79.2,18.2-51,14.3-102.7,29.4-156.2,29.7h-1.5c-20.1,0-40.8-1.9-60.5-6.4,.8,8.9,1.4,17.7,1.4,26.7,.2,19.7,15.2,38.6,33.5,38.6h1.3c10.3-.5,19.8-5.5,26.3-13.6,100.7,23.2,203.8,35.2,306.7,35.2,13.8,0,27.7-.2,41.5-.7,64.1-2,128-8.9,191.4-19.8,43.5-7.5,86.3-18.1,127.5-34.6-3.5-.6-7-1.3-10.5-2-50.1-10.2-99.5-25.2-149.2-38.2Z"/><path class="t" d="M1239.95,213.5c2.9,7.7,5.5,15.5,7.8,23.2,14.1,47.1,18.1,97.5,17.3,146.5-.8,47.5-6,94.7-10.6,141.9-5.3,54.1-10.5,108.1-15.8,162.1-1.5,15.3-2.8,30.6-4.3,45.9,21.6-36.5,38.5-76,51.3-117.7,16.6-54.4,25.5-111.7,28.5-168.9,2.9-55.9-2.4-112.8-23.5-164.1-11.4-27.8-29.1-51.3-50.7-68.9Z"/><path class="t" d="M580.05,5.8c-21.5-3.4-43.2-5.8-65-5.8-4.1,0-8.2,.1-12.4,.2-51.8,2.2-101.7,14.6-148.2,37.4-46.3,22.7-85,57.2-114.5,98.9-14.1,19.8-25.5,41.2-36.6,62.7,14.2-3,28.8-4.9,43.5-5.8,33.8-2.1,67.7-.1,101.4-4.3,12.8-2.3,25.5-5.6,37.8-10.2,3.5-1.3,7-2.7,10.5-4.2,1.1-.5,2.2-1,3.3-1.4,6.1-3,12.1-6.1,18-9.6,24.5-13.9,47.4-30.9,70-48,44.1-33.2,88.2-66.2,139.6-84.1,6.8-2.4,13.8-4.5,20.8-6.2-1.8-.8-3.7-1.5-5.5-2.3-20.1-8.1-41.3-13.8-62.7-17.3Z"/><path class="t" d="M1085.75,876.3c-12.2,6.2-24.5,11.8-37.1,16.8,11.1,1.9,22.2,3.3,33.3,4.2,3.5,.3,7.1,.4,10.5,.4,11,0,21.8-1.2,32.8-2.9,13.8-2,27-7,39.3-13.3,12.1-6.2,23.4-15.2,31.8-25.8,12.1-14.9,20.4-29.6,26.3-48,4.5-14.1,6.2-29,8.1-43.5,1.3-10.4,2.5-20.8,3.5-31.2-7.3,12.3-15.1,24.3-23.5,35.8-33.1,46.1-76.6,83-125,107.5Z"/><path class="t" d="M307.65,811.5c-1.3-3.9-2.8-7.7-4.1-11.5,.5,1.7,1,3,1.3,3.9,.4,1.1,.6,2,.6,2,0,0-.2-.5-.6-2-.5-1.4-1.1-3.2-1.5-4.2-.8-1.9-1.6-3.7-2.4-5.6-3.5-8-7.5-15.8-11.7-23.5s-9.2-14.7-13.7-22.1c2,3.3,2.8,4.5,2.7,4.5s-4-6-5.5-7.9c-2.8-3.6-5.7-7.2-8.7-10.7-5.5-6.4-11.4-12.6-17.5-18.4-1.7-1.6-3.4-3.1-5.1-4.6-2.8-2.3-5.7-4.5-8.6-6.7-26.9-19.9-57.1-33.5-85.4-50.7-15.9-9.6-30.8-20.7-44.8-33.3-12.8-11.4-23.5-24.9-33.4-39.3-27.4-39.5-42.8-88.9-44.4-138.7-1,2-1.9,4-2.8,6.1-7.8,17.9-15,35.8-18.3,55-3.7,21.5-5.1,41.5-2.2,63.1,2.8,20.7,8.7,40.1,19.3,58.4,9.2,15.7,21.6,30.1,36.1,41.3,16.1,12.6,32.8,23,50.8,32.8,12.4,6.7,24.8,13.4,36.4,21.4,3.7,3.1,7.2,6.4,10.4,9.9,3.5,5.3,6.5,10.8,9.1,16.6,4.2,10.4,8.4,20.8,13.1,30.9,5.8,12.5,14.1,24,23.6,34,18.7,19.6,44.4,31.5,71,32.1,10.5,5.2,21.4,9.6,33,13,4.8,1.4,9.7,2.7,14.6,3.9,0-.2,0-.3-.1-.4-2.1-16.8-6-33.3-11.2-49.3Z"/><path class="t" d="M1113.15,768.6c-.4,.4-.8,.7-1.2,1.1,.6-.5,1.1-1,1.2-1.1Z"/><path class="t" d="M1169.35,105.8c-21.8-19.3-46.6-34.4-74.8-42.7-15.6-4.5-31.2-6.4-46.9-6.4-13.7,0-27.5,1.4-41.3,3.6-43.6,6.7-83.4,27.3-125.7,38.7-7.3,2-14.6,3.6-22.1,5,9.5,9.1,19,18.2,28.5,27.1,3.2,3,6.5,5.9,9.8,8.9l-.2-.2s.9,.8,3.4,3c1.8,1.4,3.5,3,5.4,4.4,8.2,6.5,16.6,12.7,25.4,18,3.5,2.2,7.1,4.2,10.7,6.1-.2-.1-.2-.2-.2-.2,.2,0,1.4,.6,4.6,2.4,1.8,.8,3.6,1.5,5.4,2.2,9,3.4,18.3,5.8,27.7,7.5,9.6,1.1,19.2,1.7,28.8,1.7h3.1c25.4-.3,50.7-3.5,76-5.7,12.1-1.1,24.1-1.7,36.1-1.7,15.2,0,30.4,1.1,45.6,3.6,26.1,4.3,50.5,15.8,71.3,32.6-6.4-17-14.2-33.5-23.4-49-12.6-21.7-28.4-42.4-47.2-58.9Z"/><path class="t" d="M947.25,174.1c-.5-.2-.8-.5-1.3-.7-.3-.2-.5-.2-.8-.4,.7,.4,1.4,.7,2.1,1.1Z"/><path class="t" d="M941.55,171.2c.5,.3,1.7,1,2.8,1.4,.2,.2,.5,.2,.8,.4-.3-.2-.6-.3-.9-.5-.9-.4-1.8-.9-2.7-1.3Z"/><path class="t" d="M899.25,141.9c.8,.7,1.6,1.4,2.5,2.1-.6-.5-1.1-1-1.6-1.4-.3-.2-.6-.4-.9-.7h0Z"/><path class="t" d="M896.85,139.8c.5,.4,1.5,1.4,2.4,2.1l-.2-.2c-.7-.6-1.4-1.2-2.2-1.9Z"/><path class="r" d="M896.85,139.8c.7,.6,1.4,1.3,2.2,1.9l.2,.2,.1,.1c.2,.2,.5,.4,.8,.6-2.5-2.2-3.4-3-3.4-3,0,0,0,.1,.1,.2Z"/><path class="r" d="M941.55,171.2c.8,.5,1.8,.9,2.6,1.4,.3,.2,.6,.3,.9,.5,.3,.2,.5,.2,.8,.4-3.2-1.7-4.5-2.4-4.6-2.4,.1-.1,.1,0,.3,.1Z"/><path class="r" d="M305.55,805.8s-.3-.8-.6-2c.4,1.4,.6,2,.6,2Z"/><path class="r" d="M1239.95,213.5c-20.8-16.9-45.2-28.3-71.3-32.6-15.3-2.5-30.4-3.6-45.6-3.6-12,0-24,.6-36.1,1.7-25.3,2.2-50.6,5.5-76,5.7h-3.1c-9.6,0-19.2-.5-28.8-1.7-9.4-1.7-18.7-4.1-27.7-7.5-1.8-.7-3.6-1.4-5.4-2.2,.4,.2,.8,.5,1.3,.7-.7-.4-1.4-.8-2.2-1.1-.2-.2-.5-.2-.8-.4l-2.8-1.4c-3.6-1.9-7.2-3.9-10.7-6.1-8.8-5.4-17.2-11.5-25.4-18-1.8-1.4-3.6-2.9-5.4-4.4,.5,.5,1,.9,1.6,1.4-.8-.7-1.6-1.4-2.5-2.1s-1.9-1.7-2.4-2.1c-3.3-2.9-6.5-5.8-9.8-8.9-9.5-8.8-19-18-28.5-27.1-.4,.1-.8,.2-1.2,.2-5.1,.5-10.2,.7-15.3,.7s-9.9-.2-14.9-.6c-15.5-2.7-30.4-7.4-45-13-20.8-9.2-40.7-19.9-60.7-30.6-24-12.9-48.1-24.9-73.2-35.3-7.1,1.7-14.1,3.9-20.8,6.2-51.4,18-95.6,50.9-139.6,84.1-22.7,17.1-45.6,34-70,48-5.9,3.4-11.9,6.4-18,9.6-1.1,.5-2.2,1-3.3,1.4-3.5,1.5-7,2.9-10.5,4.2-12.4,4.6-25,8-37.8,10.2-33.7,4.2-67.6,2.1-101.4,4.3-14.8,.9-29.3,2.7-43.5,5.8-15.2,29.6-29.8,59.4-49.7,86.3-20.6,25.4-44.2,48.3-66.3,72.4-23.7,25.7-47,53.3-62.1,84.9,1.6,49.8,16.9,99.2,44.4,138.7,10,14.4,20.6,27.9,33.4,39.3,14.1,12.6,28.9,23.7,44.8,33.3,28.3,17.1,58.5,30.7,85.4,50.7,2.9,2.2,5.8,4.5,8.6,6.7,1.7,1.5,3.4,3,5.1,4.6,6.2,5.8,12,11.9,17.5,18.4,3,3.5,5.9,7.1,8.7,10.7,1.5,1.8,5.3,7.9,5.5,7.9,.1,0-.7-1.2-2.7-4.5,4.5,7.4,9.5,14.4,13.7,22.1,4.2,7.6,8.2,15.5,11.7,23.5,.8,1.8,1.6,3.7,2.4,5.6,.4,.9,1,2.7,1.5,4.2-.3-.9-.7-2.2-1.3-3.9,1.2,3.9,2.8,7.7,4.1,11.5,5.2,16,9,32.6,11.4,49.4,0,.2,0,.3,.1,.4,19.8,4.5,40.4,6.4,60.5,6.4h1.5c53.5-.2,105.2-15.4,156.2-29.7,26.1-7.4,52.4-14.1,79.2-18.2,17.8-2,35.7-2.9,53.6-2.9,24.1,0,48.1,1.7,72,4.5,49.6,7.1,98.4,18.8,146.9,31.5,49.7,13,99,28,149.4,38.2,3.5,.7,6.9,1.4,10.5,2,12.5-5,24.9-10.5,37.1-16.8,48.4-24.5,91.9-61.4,125.1-107.4,8.4-11.6,16.1-23.5,23.5-35.8,1.5-15.3,2.8-30.6,4.3-45.9,5.3-54.1,10.5-108.1,15.8-162.1,4.6-47.2,9.8-94.5,10.6-141.9,.8-49-3.2-99.3-17.3-146.5-2.7-7.7-5.4-15.5-8.3-23.1Zm-199.1,600.7s.8-.4,3.1-1.3c-1.4,.7-3.1,1.3-3.1,1.3Zm71.2-44.6c.4-.3,.8-.7,1.2-1.1-.2,.2-.7,.7-1.2,1.1Zm67-506.3c.1,0,1.5,.5,3,1.2-2.3-.9-3.1-1.2-3-1.2Zm20.5,12.3c.1,.1,.2,.2,.3,.2,.8,.7,1.5,1.4,2.3,2.1,.5,.5,.8,.8,.7,.8,.1,.1-.9-.7-3.3-3.1Z"/><path class="r" d="M1113.15,768.6c-.4,.4-.8,.7-1.2,1.1,.6-.5,1.1-1,1.2-1.1Z"/><path class="r" d="M1182.05,264.5c-1.4-.6-2.9-1.2-3-1.2s.7,.3,3,1.2Z"/><path class="r" d="M1199.95,275.9c-.1-.1-.2-.2-.3-.2,2.4,2.4,3.3,3.2,3.4,3.2s-.2-.3-.7-.8c-.8-.8-1.7-1.5-2.4-2.2Z"/><path class="r" d="M1043.95,812.9c-2.2,1-3.1,1.3-3.1,1.3,0,0,1.7-.6,3.1-1.3Z"/></g><path class="p" d="M1264.95,518.74c-1.2,0-2,.9-2,2v9.6c0,1.1,.9,2,2,2,1.2,0,2-.9,2-2v-9.6c-.1-1.2-.9-2-2-2Z"/><path class="p" d="M1256.85,529.94h-9.8c-1.2,0-2,.9-2,2s.9,2,2,2h9.8c1.2,0,2-.9,2-2,.1-1.1-.9-2-2-2Z"/><path class="p" d="M1264.95,499.44c-1.2,0-2,.9-2,2v9.6c0,1.1,.9,2,2,2,1.2,0,2-.9,2-2v-9.6c-.1-1.1-.9-2-2-2Z"/><path class="p" d="M1237.35,529.94h-9.8c-1.2,0-2,.9-2,2s.9,2,2,2h9.8c1.2,0,2-.9,2-2,.1-1.1-.8-2-2-2Z"/><path class="s" d="M121.35,834.84c-13.8,13.8-21.6,32-21.5,51,.2,23.7,11.3,44.1,27.9,60.3-6.8-36.8,3.6-77.2,26-107,9.7-12.9,21.1-24.2,33.8-33.9-7.8,1.9-15.8,3.9-23.5,6.4-15.5,4.9-31.2,11.8-42.7,23.2Z"/><path class="s" d="M530.65,786.64c33.3,8.8,67.3,15.1,101.5,19.6,5.5,.7,11,1.3,16.5,1.9-33.2-6.6-65.8-15.4-97.5-26.9-3.9-16.5-18.7-29.6-37.8-29.6h-.3c-28.7,.2-57.4,2.1-85.9,5.3,22.5,1.1,45.1,2.4,67.7,2.4,18,.1,31.9,11.9,35.8,27.3Z"/><path class="s" d="M539.15,988.64c-7.3-.8-14.7-1.1-22-1.1-6.4,0-12.8,.3-19.2,.9-11.5,1.7-22.8,4.4-33.8,7.6,13.7,2.3,27.1,5.5,40.1,10.2,28.9,12.5,54.4,32,86,38.6,10.1,2.1,20.1,3.1,30.1,3.1,11.2,0,22.5-1.2,33.8-3.5,13.1-2.7,25.9-7.1,38.4-12.1-8.7-2.1-17.2-4.5-25.7-7.1-42.3-13.1-83.6-30.1-127.7-36.6Z"/><path class="s" d="M1183.75,816.04c-12.1-.3-24.1-.4-36.1-.4-22.3,0-44.6,.5-66.9,1.1,12.3,.7,24.6,1.4,36.9,2.4,37.8,3.1,74.6,8.1,109.3,23,32.1,13.8,56.4,37.7,69.8,67.8,12-19.6,9.3-45-5.4-62.8-25.3-30.6-70.1-30.2-107.6-31.1Z"/><path class="s" d="M415.75,993.04c-37.1,0-74.4,3.6-111.5,4-2.2,0-4.4,.1-6.6,.1-49.7,0-102.3-6.5-144.8-32-9.1-5.5-17.5-11.8-24.9-19,2.8,15.5,8.8,30.4,18.1,43.6,17.8,25.1,43.9,42,74.3,51.4,17,5.2,34.6,7.4,52.2,7.4,13.4,0,26.8-1.2,40.1-3.3,53.2-8.3,100.5-34.7,151.6-49.4-1.5-.2-3-.5-4.5-.7-14.7-1.5-29.4-2.1-44-2.1Z"/><path class="s" d="M246.05,790.84c27.8-6.7,55.8-13.1,84-18.6,32.1-6.3,64.5-11.6,97.1-15.2-9.9-.5-19.8-1-29.8-1.4-8.1-.3-16.1-.5-24.1-.5-24.1,0-48,1.4-71.9,4.9-41.2,6-81.6,20.7-113.6,45.2,5.2-1.3,10.5-2.5,15.6-3.9,14.2-3.6,28.4-7.1,42.7-10.5Z"/><path class="s" d="M722.65,819.04c40.4,3.9,81.1,5.3,121.7,5.3,33.7,0,67.4-1,101.1-2.3,45.1-1.7,90.1-4,135.2-5.4-35.4-1.9-71-2.4-106.5-2.4-30.8,0-61.4,.4-92.2,.8-20.9,.2-41.9,.5-62.8,.5-54.6,0-109.1-1.3-163.5-6.6-2.3-.2-4.7-.5-7-.7,17.1,3.4,34.4,6.2,51.7,8.5,7.5,.8,14.9,1.6,22.3,2.3Z"/><path class="s" d="M1296.85,909.94c-1.1,1.7-2.2,3.4-3.5,5-12.8,16.4-30.5,27.6-49.6,36.9-61.1,30-130.8,37.8-199.1,37.8-3.5,0-7,0-10.5-.1-47.1-.5-94.3-4.2-141.4-4.2-22.9,0-45.9,.9-68.7,3.4-24.9,3.5-49.4,9.2-72.7,17.9-15.1,6.2-29.8,13.3-45,19.6-4.6,1.9-9.2,3.9-13.8,5.7,23.2,5.8,47.1,9.6,71,9.6,16.7,0,33.3-1.8,49.7-6.1,28.9-7.6,54.7-22.4,82-33.7,10.8-3.9,21.7-7,33.1-8.8,6.2-.6,12.5-.8,18.7-.8,8.2,0,16.3,.5,24.5,1.3,72.2,10.6,137.2,48.2,210.8,52.6,3.3,.2,6.7,.3,10.1,.3,32.6,0,67.7-9.4,89.3-33.1,24.5-27,30.9-64.3,17.9-97.6-1.2-1.9-2-3.8-2.8-5.7Z"/><path class="u" d="M1226.95,842.24c-34.8-14.9-71.5-19.9-109.3-23-12.3-1-24.6-1.8-36.9-2.4-45.1,1.4-90.1,3.6-135.2,5.4-33.7,1.3-67.4,2.3-101.1,2.3-40.7,0-81.3-1.4-121.7-5.3-7.4-.7-14.8-1.5-22.1-2.4-17.4-2.3-34.7-5.1-51.7-8.5-5.5-.6-11-1.2-16.5-1.9-34.3-4.5-68.3-10.8-101.5-19.6-3.9-15.4-17.8-27.3-35.8-27.3-22.6-.1-45.1-1.3-67.7-2.4-32.6,3.6-65.1,8.9-97.1,15.2-28.1,5.5-56.1,11.9-84,18.6-14.3,3.5-28.5,7.1-42.8,10.6-5.2,1.3-10.4,2.6-15.6,3.9-12.8,9.7-24.2,21-33.8,33.9-22.4,29.8-32.8,70.2-26,107,7.4,7.2,15.8,13.6,24.9,19,42.5,25.5,95.1,32,144.8,32,2.2,0,4.5,0,6.6-.1,37.1-.5,74.4-4,111.5-4,14.7,0,29.4,.5,44,2.1,1.5,.2,3,.5,4.5,.7,11.1-3.2,22.3-5.8,33.8-7.6,6.4-.6,12.8-.9,19.2-.9,7.3,0,14.7,.4,22,1.1,44.1,6.5,85.4,23.5,127.6,36.5,8.5,2.6,17,5,25.7,7.1,4.7-1.9,9.3-3.8,13.8-5.7,15.1-6.4,29.8-13.4,45-19.6,23.5-8.7,47.9-14.4,72.7-17.9,22.9-2.6,45.8-3.4,68.7-3.4,47.1,0,94.3,3.7,141.4,4.2,3.5,.1,7,.1,10.5,.1,68.3,0,137.9-7.8,199.1-37.8,19.1-9.3,36.8-20.5,49.6-36.9,1.3-1.6,2.5-3.3,3.5-5-13.7-30.4-37.9-54.2-70.1-68Z"/><path class="m" d="M1278.55,495.84l-360.3-.4c-15.5,0-29.1,10.1-33.5,24.7l-82.2,276.8h397.9l90.8-283.8c2.8-8.6-3.6-17.3-12.7-17.3Z"/><path class="l" d="M604.65,831.04h571.8c11.5,0,20.8-9.2,20.8-20.5v-12.7H604.65v33.2Z"/><path class="q" d="M1066.05,628.74c7.1,7.5,4.5,21.4-5.9,31s-24.6,11.3-31.8,3.8c-7.1-7.5-4.5-21.4,5.9-31,10.5-9.6,24.7-11.3,31.8-3.8Z"/><path class="v" d="M1066.15,641.34c-4.2,12.2-17.2,21.8-29.1,21.5-5.2-.2-9.4-2.3-12.1-5.5,1.7,6.4,7,10.8,14.8,11,11.9,.4,25-9.2,29.1-21.5,2.3-6.8,1.4-13-2-17.2,.9,3.3,.7,7.3-.7,11.7Z"/><g transform="matrix(1, 0, 0, 1, 1.1368683094535245e-13, -176.93859863281247)"><path class="i" d="M320.85,615.9c-2.4-4.5-5-8.7-7.2-13.3-2.2-4.7-3.6-9.6-4.1-14.8-.9-9.9-.4-19.6-3-29.3-2.2-8-5.8-15.8-10.5-22.6-10.8-15.5-27.1-27.1-45.8-31.2-2.5-.5-4.4,2.4-2.5,4.2,19.3,19.9,19.1,50,14.2,75.2-3,15.5-7.5,30.6-10.5,46-2.9,15.2-3.9,30.7-2.8,46.2,1.2,16.3,4.6,32.4,10.2,47.8-.4,1,.2,2.3,1.2,3,1.2,2.7,5.4,1.7,5.1-.8,16.5-7.7,32.1-17.8,43.9-31.6,12.3-14.4,20.1-32.9,19.4-51.9-.6-9.5-3.2-18.5-7.6-26.9Z"/><path class="o" d="M309.25,634.2c-2.6,3.9-5.5,7.7-8.7,11.1,.5-6.7,.3-13.6-.7-20.3-1.2-8.3-4.1-16-7-23.7,5.2-9.3,8.4-19.5,9.4-30.2,.4-4-5.9-3.9-6.3,0-.7,7.7-2.8,15.2-6,22.1-2.6-8.3-3.3-16.5-3.8-25.2-.5-10.2-1.5-20.5-7.1-29.3-2.2-3.4-7.6-.2-5.5,3.1,4.8,7.6,5.7,16.4,6.2,25.2,0,.4,.1,.8,.1,1.1-1.6-1-3.3-2-4.9-2.9-3.5-2-6.7,3.3-3.2,5.4,2.8,1.7,5.6,3.3,8.4,5,.1,0,.1,.1,.2,.1,.5,6.1,1.2,12.1,3,17.8,2.8,8.9,7.2,17.4,9.3,26.6,.1,.3,.2,.6,.2,1-3.9-2-7.3-4.8-9.8-8.3-2.4-3.3-7.8-.2-5.5,3.1,4.2,5.8,9.7,9.9,16.5,12.4h.1c.8,6.4,.8,12.8,.2,19.3-1.1,10.5-4.2,20.7-9.1,30.1-1.8,3.6,3.6,6.7,5.5,3.1,4.2-8,7.2-16.7,8.8-25.5,.4-.2,.8-.4,1.2-.8,5.4-5.1,10.1-10.8,14.2-17,2-3.6-3.4-6.7-5.7-3.3Z"/></g><path class="h" d="M276.25,625.04c-5.2-9.3-12.5-16.8-21.3-22.9-9.5-6.7-20.1-11.9-27.9-20.6-7.6-8.4-12.5-19.3-13.8-30.5-1.5-13,.8-25.9,1.7-38.8,1.5-20.2-2.2-46.7-23.7-55.8-2.6-1.1-4.9,.7-4.5,3.4,2.2,14.3-5.1,28.4-14.3,38.8-9.9,11.2-22.4,19.7-33.8,29.3-10.5,8.8-20.5,19-26.1,31.6-5.7,13-5.7,27.4-.8,40.6,4.8,13,13.7,24.2,24.7,32.7,5.6,4.3,11.5,8.1,17.8,11.3,5.9,3,12.1,5.5,18.3,8.2,5.8,2.6,11.8,5.5,16.6,9.8,5.2,4.5,8.5,10.3,10.4,16.9,3.7,12.7,2.5,26.2,5.2,39.1,2.5,12.1,8.6,24,20.7,29.1,13.8,5.8,28.8,1.9,41.8-3.9,1.2-.5,2.4-1.1,3.5-1.7-1.3,6.6-2.4,13.2-3.2,19.9-.5,3.9,5.7,3.8,6.2,0,.9-7.7,2.3-15.4,3.8-23.2,.1-.1,.2-.1,.2-.2,2-1,1.8-3.2,.7-4.5,7.5-36.5,17.1-74.4-2.2-108.6Z"/><path class="o" d="M257.05,648.84c-1.6,7.7-3.7,15.3-6.3,22.7-.1-.4-.2-.8-.2-1.1-1.6-9.9-3.5-19.9-7.2-29.2-3.5-8.8-8.5-16.8-16.1-22.7-.7-.5-1.4-1.1-2.2-1.6,2.2-6.9,2.7-14,1.7-21.2-.7-4.8-8-2.7-7.3,2,.7,5.1,.3,10.1-1,14.9-5.2-3-10.5-5.6-15.8-8.3-7.3-3.7-14.8-7.9-20.3-13.9,9.5-7.1,15.3-18.3,15.3-30.2,0-4.8-7.6-4.8-7.6,0,0,9.5-4.5,18.5-12.1,24.2-3.7-7-4.1-14.9-2.1-22.7,5.5-21.8,23.9-38.1,25.7-61.2,.4-4.8-7.2-4.8-7.6,0-1.3,17.4-13.5,31.5-20.9,47.1-3-5.3-4.3-11.4-3.4-17.4,.8-4.7-6.5-6.7-7.3-2-1.5,9,.4,18.1,5.7,25.7,.5,.7,1.2,1.1,1.8,1.4-3,8.9-4.2,18.7-.9,27.6,1.3,3.7,3.3,7,5.7,10-9.7,2.7-19.3-1.6-23.6-10.8-2-4.4-8.5-.6-6.5,3.8,5.8,12.7,21.1,18.7,34.2,13.6,.5-.2,1-.5,1.3-.8,1.7,1.5,3.5,3,5.3,4.3,12.3,8.9,28.3,13.3,39.4,23.6-10.6,8.1-25.1,8.5-36.5,1.4-4.2-2.6-7.9,3.9-3.8,6.4,14.3,8.9,32.2,7.7,45.4-2.4,.5,.8,1.1,1.5,1.6,2.3,5.1,7.9,7.6,17.1,9.5,26.1,1.5,7.4,2.8,14.8,3.7,22.3-8.2-.6-15.5-4.3-20.9-10.2-3.3-3.6-8.6,1.7-5.4,5.3,6.9,7.5,16.4,11.8,26.5,12.4h.5c.1,1.1,.2,2.1,.2,3.2,1.8,24.9,.1,49.9-5.3,74.2-1,4.7,6.3,6.7,7.3,2,4.8-21.7,6.9-43.9,6.1-66.1-.2-5.5-.5-11.1-1.2-16.6,5.2-11.6,9.1-23.6,11.7-36,1.2-4.8-6.1-6.8-7.1-2.1Z"/><path class="k" d="M393.65,609.34c-1.8-7.7-2.2-15.5-1.2-23.3,2.1-15.4,7.9-30,9.8-45.5,1.6-13.7-.6-26.8-7.5-38.9-10.1-17.5-26.8-30.2-39.7-45.7-2.4-7.1-6.5-13.7-12.7-19-3-2.6-6.8,.8-5.2,4.1,3.2,6.6,7.3,12.4,11.8,18,3.8,12,2.3,25.9-1.8,37.6-8.4,24-25.8,43.7-34,67.8-3.7,10.9-5.4,22.6-3.3,34,2,10.8,8.3,20.2,11.1,30.7,6.9,26.3-23.1,40.5-40,54.1-20.8,16.8-37.3,38.4-48,62.7-.3,.8-.4,1.5-.2,2.2-1.1,1.1-2.1,2.1-3.1,3.3-2.6,3.3,2.2,8,4.8,4.6,9.9-12.5,26.9-13.6,41.8-14.7,3.2-.2,6.3-.5,9.5-.8,8.2,1.8,16.6,2.3,25.1-.1,7.3-2,13.3-6.1,18.3-11.8,4.8-5.5,8.8-12,14.9-16.3,10-7.2,23.1-8.3,34.6-11.9,12.8-4,23-11.8,26.8-24.9,4.4-14.7,.3-30.1-4.6-44.1-2.6-7.2-5.4-14.5-7.2-22.1Z"/><path class="o" d="M373.85,550.04c-2.2,7.2-6.5,13.6-12.3,18.3,1.2-4.1,2.6-8.1,4-12.1,6.4-18.6,13.1-39,5.8-58.3-1.7-4.5-9-2.5-7.3,2,3.2,8.6,3.5,17.5,2.1,26.3-1.5-2.9-2.3-6.1-2.2-9.6,.1-4.8-7.5-4.8-7.6,0-.2,7.2,2.6,14.2,7.8,19.3-1.5,5.8-3.5,11.6-5.4,17.2-2.9,8.6-5.9,17.2-7.5,26.2-1.1,6.4-1.3,13-1.1,19.5-6.3-5-10.5-12.2-11.3-20.3-.5-4.8-8.1-4.8-7.6,0,1.2,12.4,8.4,23.7,19.5,29.7,1.2,12.5,3.2,25.8,1.2,38.4-.6,.8-.8,1.8-.5,2.8-.7,3.3-1.7,6.7-3.2,9.9-4.5,10.1-12.8,15.9-22,20.8,.5-5.1,1.4-10.1,2.6-15.1,1.2-4.7-6.2-6.7-7.3-2-1.7,7-2.8,14.1-3.2,21.2-2.8,1.4-5.5,2.9-8.1,4.4-7.7,4.5-15.1,10.5-19,18.6-3.7,7.9-4.2,17.3,.6,24.9,2.6,4,9.2,.3,6.5-3.8-4.1-6.4-2.8-14.2,1.1-20.3,11.1,1.1,22.3-.6,32.6-4.9,1.9-.8,3.2-2.4,2.6-4.6-.5-1.7-2.8-3.4-4.7-2.6-7.8,3.3-16,4.9-24.3,4.9,4-3.4,8.8-6.1,13.3-8.5,7.5-3.9,15.2-7.4,22-12.6,6.5-4.9,11.3-11.1,14.5-18.5,1.5-3.4,2.5-6.9,3.2-10.4,9.9-6.5,16.1-17.4,16.7-29.2,.2-4.8-7.4-4.8-7.6,0-.3,6.9-3.2,13.3-7.8,18.3,.5-9.6-.5-19.3-1.5-28.8s-1.7-19.2-.2-28.7c.2-1.4,.5-2.8,.8-4.2,.8,.2,1.6,0,2.5-.5,9.5-5.9,16.4-14.9,19.7-25.5,1.4-4.8-5.9-6.8-7.4-2.2Z"/><path class="j" d="M350.15,726.34H203.95c-9.5,0-16.4,10.5-14.1,21.3l27.1,132.3c3.5,16.8,16.1,28.6,30.7,28.6h59.1c14.6,0,27.3-11.8,30.7-28.6l26.9-132.3c2.1-10.9-4.8-21.3-14.2-21.3Z"/><rect class="n" x="178.95" y="269.64" width="1528.1" height="179.6"/><g class="w"><path d="M277.69,362.17c0,12.83-5.61,23.36-16.83,31.58-.22,.11-.33,.2-.33,.25-10,7.11-21.42,10.67-34.25,10.67-8.28,0-16.31-1.64-24.08-4.92-8.78-3.72-15.42-8.86-19.92-15.42-1.45-2.22-2.17-4.44-2.17-6.67,0-3.11,1.17-5.78,3.5-8,2.28-2.17,4.94-3.22,8-3.17,1.61,0,3.14,.38,4.58,1.12,1.44,.75,2.75,1.74,3.92,2.96l.08,.08v.17c.67,.83,1.8,2,3.42,3.5,5.78,5.17,13.33,7.78,22.67,7.83,7.22,0,13.78-1.86,19.67-5.58,1.67-1.05,3.1-2.11,4.29-3.17,1.19-1.05,2.17-2.21,2.92-3.46s1.28-2.5,1.58-3.75c.3-1.25,.46-2.6,.46-4.04,0-2.94-.74-5.58-2.21-7.92-1.47-2.33-3.82-4.5-7.04-6.5-5.83-3.67-12.39-5.53-19.67-5.58-10.83,0-20.47-3.03-28.92-9.08-4.78-3.44-8.39-7.47-10.83-12.08-2.45-4.61-3.67-9.64-3.67-15.08,0-2.72,.32-5.36,.96-7.92,.64-2.55,1.57-4.97,2.79-7.25,1.22-2.28,2.75-4.42,4.58-6.42s3.89-3.86,6.17-5.58c4.17-3,8.69-5.26,13.58-6.79,4.89-1.53,10-2.29,15.33-2.29,6.94,0,13.64,1.36,20.08,4.08,7.33,3.06,12.92,7.36,16.75,12.92,1.55,2.17,2.33,4.42,2.33,6.75,0,3.11-1.2,5.78-3.58,8-2.28,2.17-4.92,3.25-7.92,3.25-1.61,0-3.11-.36-4.5-1.08-1.39-.72-2.72-1.72-4-3-2.89-2.89-5.89-5.01-9-6.38-3.11-1.36-6.5-2.04-10.17-2.04-2.67,0-5.18,.32-7.54,.96-2.36,.64-4.62,1.62-6.79,2.96-1.61,1-2.93,2.03-3.96,3.08-1.03,1.06-1.71,2.12-2.04,3.21-.33,1.08-.5,2.26-.5,3.54s.17,2.46,.5,3.54c.33,1.08,1.01,2.15,2.04,3.21,1.03,1.06,2.35,2.08,3.96,3.08,4.39,2.61,9.17,3.92,14.33,3.92,12.78,0,24.19,3.56,34.25,10.67,5.61,3.95,9.88,8.62,12.79,14.04,2.92,5.42,4.38,11.35,4.38,17.79Z"/><path d="M377.69,355.92c0,6.33-1.03,12.33-3.08,18-2.06,5.67-5.08,10.83-9.08,15.5-8.67,10.17-19.47,15.25-32.42,15.25-8.11,0-15.45-2.08-22-6.25v32.5c0,3.44-1.03,6.17-3.08,8.17-2,2.11-4.75,3.14-8.25,3.08-.72,0-1.45-.06-2.17-.17-.72-.11-1.43-.28-2.12-.5-.7-.22-1.38-.53-2.04-.92-.67-.39-1.28-.89-1.83-1.5-1.11-1.06-1.9-2.29-2.38-3.71-.47-1.42-.71-2.9-.71-4.46v-112.5c0-3.44,1-6.17,3-8.17,2-2.11,4.75-3.14,8.25-3.08,1.28,0,2.55,.2,3.83,.58,1.33,.39,2.5,1.03,3.5,1.92,.72,.61,1.32,1.29,1.79,2.04,.47,.75,.88,1.54,1.21,2.38,3.39-2.33,7.01-4.07,10.88-5.21,3.86-1.14,7.9-1.71,12.12-1.71,3.17,0,6.24,.33,9.21,1,2.97,.67,5.83,1.65,8.58,2.96,2.75,1.31,5.33,2.9,7.75,4.79,2.42,1.89,4.71,4.06,6.88,6.5,8.11,9.56,12.17,20.72,12.17,33.5Zm-22.5,0c0-6.94-2.08-13.03-6.25-18.25-4.28-5.33-9.56-8-15.83-8-1.61,0-3.12,.15-4.54,.46-1.42,.31-2.78,.79-4.08,1.46-1.31,.67-2.56,1.5-3.75,2.5-1.2,1-2.32,2.2-3.38,3.58-2.11,2.67-3.68,5.49-4.71,8.46-1.03,2.97-1.54,6.24-1.54,9.79,0,6.95,2.08,13.03,6.25,18.25,4.28,5.33,9.54,8,15.79,8s11.51-2.67,15.79-8c4.17-5.22,6.25-11.3,6.25-18.25Z"/><path d="M477.78,332.42c0,3.17-1.17,5.83-3.5,8-2.28,2.17-4.95,3.28-8,3.33-2.95,0-5.7-1.36-8.25-4.08-6.67-6.72-13.58-10.05-20.75-10-1.5,0-2.95,.1-4.33,.29-1.39,.2-2.7,.5-3.92,.92-1.22,.42-2.43,.93-3.62,1.54-1.2,.61-2.35,1.33-3.46,2.17-1.11,.83-2.2,1.75-3.25,2.75-5.17,5.17-7.7,11.36-7.58,18.58v37.5c0,3.45-1.03,6.17-3.08,8.17-2,2.11-4.75,3.14-8.25,3.08-.72,0-1.45-.06-2.17-.17-.72-.11-1.43-.28-2.12-.5-.7-.22-1.38-.53-2.04-.92-.67-.39-1.28-.89-1.83-1.5-1.11-1.06-1.9-2.29-2.38-3.71-.47-1.42-.71-2.9-.71-4.46v-75c0-3.44,1-6.17,3-8.17,2-2.11,4.75-3.14,8.25-3.08,1.28,0,2.51,.18,3.71,.54,1.19,.36,2.29,.93,3.29,1.71,.89,.67,1.62,1.5,2.21,2.5,.58,1,1.1,2.06,1.54,3.17,7.83-5.28,16.75-7.92,26.75-7.92,7.05,0,14.05,1.56,21,4.67,7.44,3.39,13.14,7.97,17.08,13.75,1.61,2.33,2.42,4.61,2.42,6.83Z"/><path d="M565.19,393.42c0,1-.08,1.97-.25,2.92-.17,.95-.49,1.89-.96,2.83-.47,.94-1.1,1.75-1.88,2.42-1.06,1.11-2.29,1.9-3.71,2.38-1.42,.47-2.9,.71-4.46,.71h-25c-3.45,0-6.17-1.03-8.17-3.08-2.11-2-3.14-4.72-3.08-8.17v-63.75h-13.75c-.61,0-1.18-.04-1.71-.12-.53-.08-1.1-.18-1.71-.29-.61-.11-1.18-.28-1.71-.5-.53-.22-1.06-.51-1.58-.88-.53-.36-1.01-.79-1.46-1.29-1.11-1.05-1.9-2.29-2.38-3.71-.47-1.42-.71-2.9-.71-4.46,0-3.44,1.03-6.17,3.08-8.17,2-2.11,4.72-3.14,8.17-3.08h25.08c1.55,0,3.03,.24,4.42,.71,1.39,.47,2.61,1.26,3.67,2.38,1.11,1.06,1.9,2.28,2.38,3.67,.47,1.39,.71,2.89,.71,4.5v63.75h13.75c3.44,0,6.17,1.03,8.17,3.08,2.05,1.95,3.08,4.67,3.08,8.17Zm-21.83-109.25c0,4.06-1.42,7.45-4.25,10.17-2.89,2.72-6.28,4.08-10.17,4.08-.61,0-1.24-.04-1.88-.12-.64-.08-1.25-.19-1.83-.33-.58-.14-1.17-.33-1.75-.58-.58-.25-1.15-.51-1.71-.79-.56-.28-1.08-.61-1.58-1s-.97-.8-1.42-1.25c-1-.89-1.81-1.89-2.42-3-.61-1.11-1.07-2.26-1.38-3.46-.31-1.19-.46-2.43-.46-3.71,0-3.94,1.39-7.36,4.17-10.25,.89-.89,1.89-1.65,3-2.29,1.11-.64,2.28-1.12,3.5-1.46,1.22-.33,2.47-.5,3.75-.5,3.94,0,7.33,1.43,10.17,4.29,2.83,2.86,4.25,6.26,4.25,10.21Z"/><path d="M673.61,393.42c0,3.45-1.03,6.17-3.08,8.17-2,2.11-4.75,3.14-8.25,3.08-3.45,0-6.17-1.03-8.17-3.08-2.11-2-3.14-4.72-3.08-8.17v-43.75c0-2.89-.47-5.44-1.42-7.67-.95-2.22-2.42-4.39-4.42-6.5-1.39-1.28-2.81-2.36-4.25-3.25-1.45-.89-2.99-1.54-4.62-1.96-1.64-.42-3.4-.62-5.29-.62-2.89,0-5.46,.47-7.71,1.42-2.25,.95-4.4,2.42-6.46,4.42-3.89,3.95-5.81,8.67-5.75,14.17v43.75c0,3.45-1.03,6.17-3.08,8.17-2,2.11-4.75,3.14-8.25,3.08-.72,0-1.45-.06-2.17-.17-.72-.11-1.43-.28-2.12-.5-.7-.22-1.38-.53-2.04-.92-.67-.39-1.28-.89-1.83-1.5-1.11-1.06-1.9-2.29-2.38-3.71-.47-1.42-.71-2.9-.71-4.46v-75c0-3.44,1-6.17,3-8.17,2-2.11,4.75-3.14,8.25-3.08,2.33,0,4.36,.58,6.08,1.75,1.44,1,2.58,2.39,3.42,4.17,6.5-3.94,13.75-5.92,21.75-5.92,2.89,0,5.69,.26,8.42,.79,2.72,.53,5.35,1.31,7.88,2.33,2.53,1.03,4.94,2.33,7.25,3.92,2.3,1.58,4.49,3.4,6.54,5.46,8.33,8.28,12.5,18.28,12.5,30v43.75Z"/><path d="M777.69,318.42c0,2.61-.7,4.86-2.08,6.75-1.67,2.22-4.14,3.64-7.42,4.25-.28,.06-.61,.11-1,.17,1,2.17,1.75,4.39,2.25,6.67,.5,2.28,.75,4.67,.75,7.17,0,1.83-.14,3.62-.42,5.38-.28,1.75-.68,3.45-1.21,5.08-.53,1.64-1.18,3.22-1.96,4.75-.78,1.53-1.7,2.99-2.75,4.38-1.06,1.39-2.22,2.7-3.5,3.92,5.67,3.95,9.97,8.71,12.92,14.29,2.94,5.58,4.42,11.74,4.42,18.46,0,12.61-5.28,23.05-15.83,31.33-9.45,7.44-20.42,11.17-32.92,11.17s-23.47-3.72-32.92-11.17c-10.56-8.28-15.83-18.72-15.83-31.33,0-3.44,1.03-6.17,3.08-8.17,2-2.11,4.72-3.14,8.17-3.08,1.55,0,3.04,.24,4.46,.71,1.42,.47,2.65,1.26,3.71,2.38,2.11,2,3.14,4.72,3.08,8.17,0,2.94,.65,5.58,1.96,7.92,1.3,2.33,3.38,4.5,6.21,6.5,5.33,3.72,11.36,5.58,18.08,5.58,1.39,0,2.72-.06,4-.17,1.28-.11,2.53-.33,3.75-.67,1.22-.33,2.42-.74,3.58-1.21,1.17-.47,2.3-1,3.42-1.58,1.11-.58,2.22-1.24,3.33-1.96,2.89-2,4.97-4.17,6.25-6.5,1.28-2.33,1.92-4.97,1.92-7.92s-.65-5.58-1.96-7.92c-1.31-2.33-3.38-4.5-6.21-6.5-5.33-3.72-11.36-5.58-18.08-5.58-2.61,0-5.15-.19-7.62-.58-2.47-.39-4.88-.97-7.21-1.75-2.33-.78-4.58-1.78-6.75-3-2.17-1.22-4.25-2.61-6.25-4.17-8.95-7.05-13.42-15.97-13.42-26.75,0-5.33,1.15-10.26,3.46-14.79,2.3-4.53,5.62-8.51,9.96-11.96,8-6.33,17.28-9.5,27.83-9.5h37.5c3.44,0,6.17,1.03,8.17,3.08,2.05,1.95,3.08,4.67,3.08,8.17Zm-30,25c0-.44-.01-.86-.04-1.25-.03-.39-.08-.79-.17-1.21-.08-.42-.2-.8-.33-1.17-.14-.36-.29-.72-.46-1.08s-.36-.72-.58-1.08c-.22-.36-.49-.71-.79-1.04-.31-.33-.62-.67-.96-1-.33-.33-.71-.68-1.12-1.04-.42-.36-.85-.68-1.29-.96-1.95-1.28-3.97-2.25-6.08-2.92-2.11-.67-4.42-1-6.92-1-4.83,0-9.17,1.31-13,3.92-2.11,1.45-3.6,2.95-4.46,4.5-.86,1.56-1.29,3.33-1.29,5.33s.44,3.79,1.33,5.38c.89,1.58,2.36,3.07,4.42,4.46,3.83,2.61,8.17,3.92,13,3.92s9.17-1.3,13-3.92c2.11-1.44,3.6-2.94,4.46-4.5,.86-1.55,1.29-3.33,1.29-5.33Z"/><path d="M971.45,330.92c0,2.5-.21,4.93-.62,7.29-.42,2.36-1.03,4.67-1.83,6.92-.81,2.25-1.82,4.46-3.04,6.62-1.22,2.17-2.64,4.25-4.25,6.25-4.56,5.83-11.53,12-20.92,18.5-.72,.5-1.43,.99-2.12,1.46-.7,.47-1.38,.93-2.04,1.38-.67,.45-1.35,.9-2.04,1.38-.7,.47-1.4,.96-2.12,1.46h27.75c3.44,0,6.17,1.03,8.17,3.08,2.11,2,3.14,4.72,3.08,8.17,0,3.45-1.03,6.17-3.08,8.17-2,2.11-4.72,3.14-8.17,3.08h-62.5c-4.61,0-7.97-1.36-10.08-4.08-.72-.89-1.25-1.89-1.58-3s-.5-2.25-.5-3.42c0-3.28,1.67-6.44,5-9.5,2.11-1.78,5-3.67,8.67-5.67,2.72-1.44,5.39-2.92,8-4.42,14.17-8.39,24.67-16.3,31.5-23.75,6.83-7.44,10.25-14.08,10.25-19.92,0-2.89-.47-5.44-1.42-7.67-.95-2.22-2.42-4.39-4.42-6.5-3.95-3.89-8.67-5.83-14.17-5.83-2.89,0-5.45,.47-7.67,1.42-2.22,.95-4.39,2.42-6.5,4.42-3.89,3.95-5.83,8.67-5.83,14.17,0,3.45-1.03,6.17-3.08,8.17-2,2.11-4.72,3.14-8.17,3.08-1,0-1.97-.08-2.92-.25-.95-.17-1.89-.47-2.83-.92-.95-.44-1.75-1.08-2.42-1.92-1.11-1.05-1.9-2.29-2.38-3.71-.47-1.42-.71-2.9-.71-4.46,0-11.72,4.15-21.74,12.46-30.04,8.3-8.3,18.32-12.46,30.04-12.46s21.74,4.15,30.04,12.46c8.3,8.31,12.46,18.32,12.46,30.04Z"/><path d="M1077.7,346.51c0,14.67-4.17,27.64-12.5,38.92-4.61,6.22-9.99,10.99-16.12,14.29-6.14,3.3-12.85,4.96-20.12,4.96s-13.99-1.62-20.12-4.88c-6.14-3.25-11.51-8.04-16.12-14.38-8.33-11.28-12.5-24.25-12.5-38.92s4.17-27.5,12.5-38.83c4.61-6.22,9.99-10.99,16.12-14.29,6.14-3.3,12.85-4.96,20.12-4.96s13.99,1.62,20.12,4.88c6.14,3.25,11.51,8.04,16.12,14.38,8.33,11.33,12.5,24.28,12.5,38.83Zm-22.5,0c0-3-.26-5.89-.79-8.67-.53-2.78-1.32-5.46-2.38-8.04-1.06-2.58-2.39-5.07-4-7.46-2.61-3.94-5.47-6.83-8.58-8.67-3.11-1.83-6.61-2.75-10.5-2.75s-7.39,.93-10.5,2.79c-3.11,1.86-5.97,4.74-8.58,8.62-4.78,7.11-7.17,15.17-7.17,24.17,0,4.56,.6,8.83,1.79,12.83,1.19,4,2.99,7.81,5.38,11.42,1.28,2,2.64,3.72,4.08,5.17,1.44,1.45,2.96,2.62,4.54,3.54,1.58,.92,3.24,1.6,4.96,2.04,1.72,.45,3.55,.67,5.5,.67s3.78-.22,5.5-.67c1.72-.44,3.38-1.12,4.96-2.04,1.58-.92,3.08-2.1,4.5-3.54,1.42-1.44,2.79-3.17,4.12-5.17,1.61-2.39,2.94-4.88,4-7.46,1.05-2.58,1.85-5.26,2.38-8.04,.53-2.78,.79-5.69,.79-8.75Zm-14.92,0c0,.72-.07,1.49-.21,2.29-.14,.81-.36,1.53-.67,2.17-.31,.64-.67,1.28-1.08,1.92-.42,.64-.88,1.21-1.38,1.71-1.06,1.06-2.28,1.86-3.67,2.42-1.39,.56-2.83,.83-4.33,.83-.72,0-1.46-.05-2.21-.17-.75-.11-1.46-.32-2.12-.62-.67-.3-1.32-.67-1.96-1.08-.64-.42-1.21-.88-1.71-1.38-.72-.72-1.33-1.5-1.83-2.33-.5-.83-.89-1.75-1.17-2.75-.22-1-.33-2-.33-3,0-1.55,.22-3.01,.67-4.38,.44-1.36,1.19-2.57,2.25-3.62,1.11-1.11,2.39-1.9,3.83-2.38,1.44-.47,2.97-.71,4.58-.71,1.05,0,2.04,.08,2.96,.25s1.86,.51,2.83,1.04c.97,.53,1.85,1.12,2.62,1.79,.67,.72,1.24,1.56,1.71,2.5,.47,.95,.79,1.85,.96,2.71s.25,1.79,.25,2.79Z"/><path d="M1171.45,330.92c0,2.5-.21,4.93-.62,7.29-.42,2.36-1.03,4.67-1.83,6.92-.81,2.25-1.82,4.46-3.04,6.62-1.22,2.17-2.64,4.25-4.25,6.25-4.56,5.83-11.53,12-20.92,18.5-.72,.5-1.43,.99-2.12,1.46-.7,.47-1.38,.93-2.04,1.38-.67,.45-1.35,.9-2.04,1.38-.7,.47-1.4,.96-2.12,1.46h27.75c3.44,0,6.17,1.03,8.17,3.08,2.11,2,3.14,4.72,3.08,8.17,0,3.45-1.03,6.17-3.08,8.17-2,2.11-4.72,3.14-8.17,3.08h-62.5c-4.61,0-7.97-1.36-10.08-4.08-.72-.89-1.25-1.89-1.58-3s-.5-2.25-.5-3.42c0-3.28,1.67-6.44,5-9.5,2.11-1.78,5-3.67,8.67-5.67,2.72-1.44,5.39-2.92,8-4.42,14.17-8.39,24.67-16.3,31.5-23.75,6.83-7.44,10.25-14.08,10.25-19.92,0-2.89-.47-5.44-1.42-7.67-.95-2.22-2.42-4.39-4.42-6.5-3.95-3.89-8.67-5.83-14.17-5.83-2.89,0-5.45,.47-7.67,1.42-2.22,.95-4.39,2.42-6.5,4.42-3.89,3.95-5.83,8.67-5.83,14.17,0,3.45-1.03,6.17-3.08,8.17-2,2.11-4.72,3.14-8.17,3.08-1,0-1.97-.08-2.92-.25-.95-.17-1.89-.47-2.83-.92-.95-.44-1.75-1.08-2.42-1.92-1.11-1.05-1.9-2.29-2.38-3.71-.47-1.42-.71-2.9-.71-4.46,0-11.72,4.15-21.74,12.46-30.04,8.3-8.3,18.32-12.46,30.04-12.46s21.74,4.15,30.04,12.46c8.3,8.31,12.46,18.32,12.46,30.04Z"/><path d="M1271.45,330.92c0,2.5-.21,4.93-.62,7.29-.42,2.36-1.03,4.67-1.83,6.92-.81,2.25-1.82,4.46-3.04,6.62-1.22,2.17-2.64,4.25-4.25,6.25-4.56,5.83-11.53,12-20.92,18.5-.72,.5-1.43,.99-2.12,1.46-.7,.47-1.38,.93-2.04,1.38-.67,.45-1.35,.9-2.04,1.38-.7,.47-1.4,.96-2.12,1.46h27.75c3.44,0,6.17,1.03,8.17,3.08,2.11,2,3.14,4.72,3.08,8.17,0,3.45-1.03,6.17-3.08,8.17-2,2.11-4.72,3.14-8.17,3.08h-62.5c-4.61,0-7.97-1.36-10.08-4.08-.72-.89-1.25-1.89-1.58-3s-.5-2.25-.5-3.42c0-3.28,1.67-6.44,5-9.5,2.11-1.78,5-3.67,8.67-5.67,2.72-1.44,5.39-2.92,8-4.42,14.17-8.39,24.67-16.3,31.5-23.75,6.83-7.44,10.25-14.08,10.25-19.92,0-2.89-.47-5.44-1.42-7.67-.95-2.22-2.42-4.39-4.42-6.5-3.95-3.89-8.67-5.83-14.17-5.83-2.89,0-5.45,.47-7.67,1.42-2.22,.95-4.39,2.42-6.5,4.42-3.89,3.95-5.83,8.67-5.83,14.17,0,3.45-1.03,6.17-3.08,8.17-2,2.11-4.72,3.14-8.17,3.08-1,0-1.97-.08-2.92-.25-.95-.17-1.89-.47-2.83-.92-.95-.44-1.75-1.08-2.42-1.92-1.11-1.05-1.9-2.29-2.38-3.71-.47-1.42-.71-2.9-.71-4.46,0-11.72,4.15-21.74,12.46-30.04,8.3-8.3,18.32-12.46,30.04-12.46s21.74,4.15,30.04,12.46c8.3,8.31,12.46,18.32,12.46,30.04Z"/></g><rect class="n" x="457.65" y="64.84" width="429.5" height="179.6"/><g class="w"><path d="M556.4,75.73c0,.67-.08,1.36-.25,2.08l-18.58,111.83c-.5,2.95-1.76,5.38-3.79,7.29-2.03,1.92-4.51,2.88-7.46,2.88-2.72,0-5.07-.89-7.04-2.67-1.97-1.78-3.26-4-3.88-6.67l-7.75-30.67-7.75,30.67c-.61,2.72-1.88,4.96-3.79,6.71-1.92,1.75-4.29,2.62-7.12,2.62-3,0-5.53-.96-7.58-2.88-2.06-1.92-3.28-4.38-3.67-7.38l-18.58-111.75c-.11-.67-.2-1.36-.25-2.08,0-1.5,.21-2.92,.62-4.25,.42-1.33,1.15-2.5,2.21-3.5,1.05-1.11,2.32-1.92,3.79-2.42,1.47-.5,3.04-.75,4.71-.75,2.89,0,5.3,.83,7.25,2.5,2.11,1.67,3.33,3.97,3.67,6.92l10,59.17,5.5-21.67c.39-1.78,1.07-3.36,2.04-4.75,.97-1.39,2.24-2.51,3.79-3.38,1.55-.86,3.26-1.29,5.12-1.29s3.57,.42,5.12,1.25c1.55,.83,2.83,1.96,3.83,3.38s1.69,2.99,2.08,4.71l5.5,21.75,10-59.17c.22-1.28,.61-2.54,1.17-3.79,.55-1.25,1.36-2.29,2.42-3.12,1.94-1.67,4.39-2.5,7.33-2.5,3.55,0,6.39,1.06,8.5,3.17,1.89,2,2.83,4.58,2.83,7.75Z"/><path d="M656.4,132.31c0,9.22-1.67,17.85-5,25.88-3.33,8.03-8.28,15.29-14.83,21.79-13.17,13.22-29.06,19.83-47.67,19.83h-10.42c-3.06,0-5.7-1.11-7.92-3.33-2.22-2.22-3.33-4.86-3.33-7.92V76.06c0-3.05,1.11-5.69,3.33-7.92,2.22-2.22,4.86-3.33,7.92-3.33h10.42c18.61,0,34.51,6.6,47.71,19.79,13.19,13.2,19.79,29.1,19.79,47.71Zm-22.5,0c0-12.39-4.39-23-13.17-31.83-8.61-8.55-18.92-12.94-30.92-13.17v90c6.11-.11,11.71-1.24,16.79-3.38,5.08-2.14,9.79-5.4,14.12-9.79,4.44-4.5,7.75-9.38,9.92-14.62s3.25-10.99,3.25-17.21Z"/><path d="M743.9,188.56c0,1-.08,1.97-.25,2.92-.17,.95-.49,1.89-.96,2.83-.47,.94-1.1,1.75-1.88,2.42-1.06,1.11-2.29,1.9-3.71,2.38-1.42,.47-2.9,.71-4.46,.71h-50c-1.56,0-3.04-.24-4.46-.71-1.42-.47-2.65-1.26-3.71-2.38-1.11-1.06-1.9-2.29-2.38-3.71-.47-1.42-.71-2.9-.71-4.46,0-3.44,1.03-6.17,3.08-8.17,1.05-1.11,2.29-1.9,3.71-2.38,1.42-.47,2.9-.71,4.46-.71h13.75V87.31h-13.75c-.72,0-1.45-.05-2.17-.17-.72-.11-1.43-.28-2.12-.5-.7-.22-1.38-.53-2.04-.92-.67-.39-1.28-.89-1.83-1.5-.72-.72-1.32-1.54-1.79-2.46-.47-.92-.81-1.85-1-2.79-.2-.94-.29-1.92-.29-2.92,0-3.44,1.03-6.17,3.08-8.17,2-2.11,4.72-3.14,8.17-3.08h50c3.44,0,6.17,1.03,8.17,3.08,2.11,2,3.14,4.72,3.08,8.17,0,.61-.04,1.18-.12,1.71-.08,.53-.18,1.1-.29,1.71-.11,.61-.28,1.18-.5,1.71-.22,.53-.51,1.06-.88,1.58-.36,.53-.79,1.01-1.29,1.46-.72,.72-1.54,1.32-2.46,1.79-.92,.47-1.85,.81-2.79,1-.95,.2-1.92,.29-2.92,.29h-13.75v90h13.75c3.44,0,6.17,1.03,8.17,3.08,2.05,1.95,3.08,4.67,3.08,8.17Z"/><path d="M843.9,188.56c0,1-.08,1.97-.25,2.92-.17,.95-.49,1.89-.96,2.83-.47,.94-1.1,1.75-1.88,2.42-1.06,1.11-2.29,1.9-3.71,2.38-1.42,.47-2.9,.71-4.46,.71h-50c-1.56,0-3.04-.24-4.46-.71-1.42-.47-2.65-1.26-3.71-2.38-1.11-1.06-1.9-2.29-2.38-3.71-.47-1.42-.71-2.9-.71-4.46,0-3.44,1.03-6.17,3.08-8.17,1.05-1.11,2.29-1.9,3.71-2.38,1.42-.47,2.9-.71,4.46-.71h13.75V87.31h-13.75c-.72,0-1.45-.05-2.17-.17-.72-.11-1.43-.28-2.12-.5-.7-.22-1.38-.53-2.04-.92-.67-.39-1.28-.89-1.83-1.5-.72-.72-1.32-1.54-1.79-2.46-.47-.92-.81-1.85-1-2.79-.2-.94-.29-1.92-.29-2.92,0-3.44,1.03-6.17,3.08-8.17,2-2.11,4.72-3.14,8.17-3.08h50c3.44,0,6.17,1.03,8.17,3.08,2.11,2,3.14,4.72,3.08,8.17,0,.61-.04,1.18-.12,1.71-.08,.53-.18,1.1-.29,1.71-.11,.61-.28,1.18-.5,1.71-.22,.53-.51,1.06-.88,1.58-.36,.53-.79,1.01-1.29,1.46-.72,.72-1.54,1.32-2.46,1.79-.92,.47-1.85,.81-2.79,1-.95,.2-1.92,.29-2.92,.29h-13.75v90h13.75c3.44,0,6.17,1.03,8.17,3.08,2.05,1.95,3.08,4.67,3.08,8.17Z"/></g></svg>